<svg width="48" height="53" viewBox="0 0 48 53" fill="none" xmlns="http://www.w3.org/2000/svg">
<path d="M42.7511 11.0679L43.4949 9.78495H43.4964L42.7511 11.0679ZM42.7511 41.1621L42.005 39.8807L42.7503 41.1621H42.7511ZM27.7586 49.756L28.5047 51.0375L27.7594 49.756H27.7586ZM20.2519 49.756L20.9972 48.4745L20.9995 48.476L20.2519 49.7568V49.756ZM48 17.5208V34.7093H45.0171L45.0194 17.526L48 17.5208ZM48 34.7093C48 37.9033 46.2828 40.8481 43.4957 42.4444L42.005 39.8807C43.8706 38.8127 45.0171 36.8436 45.0171 34.71H48V34.7093ZM43.4964 42.4436L28.504 51.0375L27.0125 48.4745L42.005 39.8807L43.4964 42.4436ZM28.504 51.0383C25.7175 52.6338 22.2847 52.6353 19.505 51.0368L21.0002 48.4753C22.8531 49.541 25.1476 49.5424 27.0133 48.4738L28.504 51.0375V51.0383ZM19.5065 51.0383L4.50433 42.4444L5.99503 39.8807L20.9972 48.4745L19.5058 51.0383H19.5065ZM4.50433 42.4436C1.71715 40.8474 -7.78585e-07 37.9026 -7.78585e-07 34.7085H2.98289C2.98289 36.8429 4.12941 38.8113 5.99503 39.8792L4.50433 42.4429V42.4436ZM0.000746716 34.7093L0.00224672 17.5253L2.98364 17.5208V34.7093H0.000746716ZM0.00224672 17.526C0.00224672 14.3319 1.7194 11.3872 4.50658 9.79091L5.99728 12.3546C4.13166 13.4225 2.98364 15.3872 2.98364 17.5208L0.00224672 17.5253V17.526ZM4.50583 9.79091L19.4983 1.19703L20.9897 3.76001L5.99728 12.3539L4.50583 9.79091ZM19.499 1.19703C22.2855 -0.398513 25.7183 -0.400001 28.498 1.19851L27.0028 3.76001C25.1499 2.69433 22.8554 2.69284 20.9897 3.7615L19.499 1.19777V1.19703ZM28.4957 1.19703L43.4987 9.79091L42.008 12.3546L27.0058 3.76075L28.4972 1.19703H28.4957ZM43.4979 9.79091C46.2851 11.3864 48 14.3267 48 17.5208L45.0194 17.526C45.0194 15.3917 43.8728 13.4233 42.0072 12.3554L43.4979 9.79165V9.79091Z" fill="#00378C"/>
<path d="M33.9784 18.1183L34.3649 17.4364H34.3657L33.9784 18.1183ZM33.9784 34.1143L33.5907 33.4332L33.978 34.1143H33.9784ZM26.1882 38.6822L26.5759 39.3634L26.1886 38.6822H26.1882ZM22.2877 38.6822L22.675 38.0011L22.6761 38.0019L22.2877 38.6826V38.6822ZM36.7058 21.5482V30.6844H35.1559L35.157 21.551L36.7058 21.5482ZM36.7058 30.6844C36.7058 32.3822 35.8136 33.9474 34.3653 34.7959L33.5907 33.4332C34.5601 32.8656 35.1559 31.8189 35.1559 30.6848H36.7058V30.6844ZM34.3657 34.7955L26.5755 39.3634L25.8005 38.0011L33.5907 33.4332L34.3657 34.7955ZM26.5755 39.3638C25.1277 40.2119 23.344 40.2127 21.8996 39.363L22.6765 38.0015C23.6393 38.5679 24.8315 38.5687 25.8009 38.0007L26.5755 39.3634V39.3638ZM21.9004 39.3638L14.1051 34.7959L14.8797 33.4332L22.675 38.0011L21.9 39.3638H21.9004ZM14.1051 34.7955C12.6569 33.947 11.7646 32.3818 11.7646 30.684H13.3146C13.3146 31.8185 13.9103 32.8648 14.8797 33.4324L14.1051 34.7951V34.7955ZM11.765 30.6844L11.7658 21.5506L13.315 21.5482V30.6844H11.765ZM11.7658 21.551C11.7658 19.8532 12.658 18.288 14.1063 17.4395L14.8809 18.8022C13.9115 19.3699 13.315 20.4141 13.315 21.5482L11.7658 21.5506V21.551ZM14.1059 17.4395L21.8961 12.8716L22.6711 14.2339L14.8809 18.8018L14.1059 17.4395ZM21.8965 12.8716C23.3443 12.0235 25.1281 12.0227 26.5724 12.8724L25.7955 14.2339C24.8327 13.6675 23.6405 13.6667 22.6711 14.2347L21.8965 12.872V12.8716ZM26.5712 12.8716L34.3669 17.4395L33.5923 18.8022L25.797 14.2343L26.572 12.8716H26.5712ZM34.3665 17.4395C35.8147 18.2876 36.7058 19.8505 36.7058 21.5482L35.157 21.551C35.157 20.4165 34.5613 19.3703 33.5919 18.8026L34.3665 17.4399V17.4395Z" fill="#00378C"/>
</svg>
